<?xml version="1.0" encoding="UTF-8" standalone="no"?>
<!-- Created with Inkscape (http://www.inkscape.org/) -->

<svg
   width="210mm"
   height="297mm"
   viewBox="0 0 210 297"
   version="1.1"
   id="svg5"
   inkscape:version="1.2.2 (b0a8486541, 2022-12-01)"
   sodipodi:docname="loop.svg"
   xmlns:inkscape="http://www.inkscape.org/namespaces/inkscape"
   xmlns:sodipodi="http://sodipodi.sourceforge.net/DTD/sodipodi-0.dtd"
   xmlns="http://www.w3.org/2000/svg"
   xmlns:svg="http://www.w3.org/2000/svg">
  <sodipodi:namedview
     id="namedview7"
     pagecolor="#ffffff"
     bordercolor="#666666"
     borderopacity="1.0"
     inkscape:showpageshadow="2"
     inkscape:pageopacity="0.0"
     inkscape:pagecheckerboard="0"
     inkscape:deskcolor="#d1d1d1"
     inkscape:document-units="mm"
     showgrid="false"
     inkscape:zoom="1.1400822"
     inkscape:cx="483.29847"
     inkscape:cy="629.34057"
     inkscape:window-width="1920"
     inkscape:window-height="1006"
     inkscape:window-x="0"
     inkscape:window-y="0"
     inkscape:window-maximized="1"
     inkscape:current-layer="layer1" />
  <defs
     id="defs2" />
  <g
     inkscape:label="Layer 1"
     inkscape:groupmode="layer"
     id="layer1">
    <path
       style="fill:none;stroke:#000000;stroke-width:0.264583px;stroke-linecap:butt;stroke-linejoin:miter;stroke-opacity:1"
       d="m 120.09688,244.98014 c 0,0 -207.439714,-141.52177 -53.330036,-214.078617 C 220.87652,-41.65532 214.97313,175.03138 44.755457,247.63567"
       id="path245"
       sodipodi:nodetypes="czc" />
    <path
       style="fill:none;stroke:#000000;stroke-width:0.264583px;stroke-linecap:butt;stroke-linejoin:miter;stroke-opacity:1"
       d="M 133.86794,212.09787 C 117.52182,215.20059 -49.997785,97.42159 102.18484,41.490093 124.41141,33.321186 150.64002,48.75447 153.16347,63.125426 169.80384,157.89158 43.253666,226.94748 43.253666,226.94748"
       id="path245-3"
       sodipodi:nodetypes="cssc" />
    <path
       style="fill:#800000;stroke-width:0.264583;stroke-linejoin:round"
       id="path809"
       d="m 120.9149,225.06733 c -2.46977,-0.72501 -4.67473,-2.08398 -6.82817,-3.45601 -2.07253,-1.36554 -4.01263,-2.91472 -5.90401,-4.51783 -1.61624,-1.40955 -3.20861,-2.84512 -4.84152,-4.23576 -1.63719,-1.40271 -3.32411,-2.74436 -5.029271,-4.06293 -2.035593,-1.56385 -4.011004,-3.19883 -5.929527,-4.90366 -1.945632,-1.72272 -3.843808,-3.49809 -5.739209,-5.27566 -1.073116,-1.0875 -2.247003,-2.05913 -3.442716,-3.00624 -1.145683,-0.91136 -2.346706,-1.74959 -3.535376,-2.60315 -1.202825,-0.88567 -2.428253,-1.73689 -3.680904,-2.55024 -1.272733,-0.84326 -2.499651,-1.75267 -3.712086,-2.67974 -0.867306,-0.66976 -1.714299,-1.36395 -2.530194,-2.0954 -0.679932,-0.61761 -1.324552,-1.27236 -1.971344,-1.92413 -0.213657,-0.21416 -0.423606,-0.43193 -0.633143,-0.6501 0,0 -3.370911,2.0648 -3.370911,2.0648 v 0 c 0.218956,0.21201 0.437576,0.42438 0.65377,0.63922 0.660098,0.65019 1.327163,1.29333 2.003099,1.92707 0.820928,0.74696 1.687042,1.43787 2.568737,2.11182 1.233305,0.91803 2.48204,1.81523 3.75041,2.68432 1.236245,0.82831 2.465554,1.66764 3.67407,2.53603 1.180129,0.85094 2.352824,1.71304 3.504462,2.60224 1.195917,0.94181 2.383912,1.89149 3.483597,2.94715 1.937864,1.74156 3.877262,3.48113 5.788205,5.25239 1.919716,1.70759 3.886284,3.36221 5.913469,4.94131 1.68352,1.33677 3.374692,2.6648 5.018562,4.05046 1.62673,1.39732 3.21109,2.84132 4.83058,4.24685 1.92703,1.60024 3.90542,3.14153 6.00411,4.51286 2.1551,1.36958 4.32359,2.74248 6.72084,3.6568 0,0 3.23447,-2.21247 3.23447,-2.21247 z" />
    <path
       style="fill:#800000;stroke-width:0.264583;stroke-linejoin:round"
       id="path813"
       d="m 65.678832,187.5126 c -0.516921,-1.85179 -0.727342,-3.77153 -0.935241,-5.67753 -0.121901,-1.20196 -0.267496,-2.40154 -0.358008,-3.60647 -0.0046,-0.0733 -0.01458,-0.14636 -0.01384,-0.21975 0.0024,-0.24946 0.268375,-0.18962 0.235489,-0.16957 -3.010032,1.83499 -4.499115,2.35219 -3.119741,1.86221 0.583813,0.0438 1.164415,0.14894 1.740233,0.2555 0.477255,0.0842 0.916988,0.29287 1.36443,0.46965 0.546436,0.22824 1.033843,0.56761 1.537708,0.87365 0.508032,0.26982 0.97673,0.60228 1.44335,0.93656 0.403788,0.33071 0.882269,0.52353 1.355404,0.72773 0.287878,0.12614 0.147728,0.0657 0.420325,0.18146 0,0 3.290457,-2.20438 3.290457,-2.20438 v 0 c -0.2716,-0.10201 -0.132504,-0.0473 -0.416978,-0.16483 -0.447257,-0.20664 -0.927627,-0.34799 -1.321001,-0.65613 -0.475819,-0.33813 -0.93752,-0.70109 -1.459693,-0.96729 -0.524611,-0.29867 -1.013516,-0.65687 -1.559555,-0.91748 -0.454549,-0.21376 -0.932397,-0.39998 -1.414301,-0.53894 -0.58782,-0.12042 -1.18632,-0.17873 -1.770642,-0.31772 -1.629508,-0.44913 -4.157811,0.95742 -3.806537,2.67693 0.163227,1.18186 0.335516,2.3626 0.478073,3.54719 0.233048,1.94214 0.481145,3.8838 0.852676,5.80525 0,0 3.457395,-1.89604 3.457395,-1.89604 z" />
    <path
       style="fill:#ffffff;stroke:#ffffff;stroke-width:2.765;stroke-linecap:butt;stroke-linejoin:miter;stroke-dasharray:none;stroke-opacity:1"
       d="m 74.362308,206.7309 c 0.373944,-0.23793 0.273976,-0.15813 0.727332,-0.57291 0.105283,-0.0963 0.198967,-0.20472 0.30271,-0.3027 0.09815,-0.0927 0.201107,-0.18018 0.302707,-0.26908 0.267642,-0.23418 0.671441,-0.57723 0.924941,-0.7904 0.03355,-0.0282 0.283268,-0.23369 0.336341,-0.26907 0.745281,-0.49686 -0.42975,0.35021 0.672687,-0.43725 0.05841,-0.0417 0.11044,-0.0919 0.168169,-0.13453 0.07128,-0.0527 0.1465,-0.0998 0.218623,-0.15136 2.4e-5,-2e-5 0.269049,-0.20179 0.269073,-0.2018 0.08214,-0.0536 0.169664,-0.0985 0.252257,-0.15136 0.08678,-0.0555 0.2981,-0.21233 0.369977,-0.26907 0.127897,-0.10097 0.243321,-0.217 0.369975,-0.31953 0.03142,-0.0254 0.06727,-0.0448 0.100904,-0.0673 0.116861,-0.0779 0.239779,-0.15229 0.353158,-0.23543 0.05154,-0.0378 0.09981,-0.0799 0.151355,-0.11772 0.1138,-0.0835 0.2418,-0.14883 0.353158,-0.23544 0.01878,-0.0146 0.03364,-0.0336 0.05045,-0.0505 0.06166,-0.0448 0.12442,-0.0882 0.184986,-0.13453 0.101669,-0.0778 0.12301,-0.10619 0.218623,-0.20181 0.02241,-0.0224 0.04251,-0.0475 0.06727,-0.0673 0.03157,-0.0252 0.06886,-0.0426 0.100904,-0.0673 0.07981,-0.0357 0.119206,-0.11701 0.184986,-0.16817 0.0258,-0.0201 0.05749,-0.0315 0.08409,-0.0505 0.0258,-0.0184 0.0419,-0.0482 0.06727,-0.0673 0.03234,-0.0243 0.06624,-0.0465 0.100902,-0.0673 0.104007,-0.0624 0.03417,-5.3e-4 0.134538,-0.0841 0.04186,-0.0349 0.07351,-0.0861 0.117721,-0.11772 0.0204,-0.0146 0.04687,-0.019 0.06727,-0.0336 0.03226,-0.023 0.05047,-0.0631 0.08409,-0.0841 0.01416,-0.009 0.03368,-0.007 0.04713,-0.0168 0.02524,-0.0185 0.03953,-0.0503 0.06637,-0.0664 0.0075,-0.004 0.05964,0.003 0.07315,0 0.08018,-0.017 0.02331,-0.0159 0.0567,-0.0159"
       id="path1017" />
    <path
       style="fill:#ffffff;stroke:#ffffff;stroke-width:2.765;stroke-linecap:butt;stroke-linejoin:miter;stroke-dasharray:none;stroke-opacity:1"
       d="m 74.362308,206.7309 c 0.373944,-0.23793 0.273976,-0.15813 0.727332,-0.57291 0.105283,-0.0963 0.198967,-0.20472 0.30271,-0.3027 0.09815,-0.0927 0.201107,-0.18018 0.302707,-0.26908 0.267642,-0.23418 0.671441,-0.57723 0.924941,-0.7904 0.03355,-0.0282 0.283268,-0.23369 0.336341,-0.26907 0.745281,-0.49686 -0.42975,0.35021 0.672687,-0.43725 0.05841,-0.0417 0.11044,-0.0919 0.168169,-0.13453 0.07128,-0.0527 0.1465,-0.0998 0.218623,-0.15136 2.4e-5,-2e-5 0.269049,-0.20179 0.269073,-0.2018 0.08214,-0.0536 0.169664,-0.0985 0.252257,-0.15136 0.08678,-0.0555 0.2981,-0.21233 0.369977,-0.26907 0.127897,-0.10097 0.243321,-0.217 0.369975,-0.31953 0.03142,-0.0254 0.06727,-0.0448 0.100904,-0.0673 0.116861,-0.0779 0.239779,-0.15229 0.353158,-0.23543 0.05154,-0.0378 0.09981,-0.0799 0.151355,-0.11772 0.1138,-0.0835 0.2418,-0.14883 0.353158,-0.23544 0.01878,-0.0146 0.03364,-0.0336 0.05045,-0.0505 0.06166,-0.0448 0.12442,-0.0882 0.184986,-0.13453 0.101669,-0.0778 0.12301,-0.10619 0.218623,-0.20181 0.02241,-0.0224 0.04251,-0.0475 0.06727,-0.0673 0.03157,-0.0252 0.06886,-0.0426 0.100904,-0.0673 0.07981,-0.0357 0.119206,-0.11701 0.184986,-0.16817 0.0258,-0.0201 0.05749,-0.0315 0.08409,-0.0505 0.0258,-0.0184 0.0419,-0.0482 0.06727,-0.0673 0.03234,-0.0243 0.06624,-0.0465 0.100902,-0.0673 0.104007,-0.0624 0.03417,-5.3e-4 0.134538,-0.0841 0.04186,-0.0349 0.07351,-0.0861 0.117721,-0.11772 0.0204,-0.0146 0.04687,-0.019 0.06727,-0.0336 0.03226,-0.023 0.05047,-0.0631 0.08409,-0.0841 0.01416,-0.009 0.03368,-0.007 0.04713,-0.0168 0.02524,-0.0185 0.03953,-0.0503 0.06637,-0.0664 0.0075,-0.004 0.05964,0.003 0.07315,0 0.08018,-0.017 0.02331,-0.0159 0.0567,-0.0159"
       id="path1573" />
    <path
       style="fill:#ffffff;stroke:#ffffff;stroke-width:2.765;stroke-linecap:butt;stroke-linejoin:miter;stroke-dasharray:none;stroke-opacity:1"
       d="m 86.00006,196.28467 c 0.373944,-0.23793 0.273976,-0.15813 0.727332,-0.57291 0.105283,-0.0963 0.198967,-0.20472 0.30271,-0.3027 0.09815,-0.0927 0.201107,-0.18018 0.302707,-0.26908 0.267642,-0.23418 0.671441,-0.57723 0.924941,-0.7904 0.03355,-0.0282 0.283268,-0.23369 0.336341,-0.26907 0.745281,-0.49686 -0.42975,0.35021 0.672687,-0.43725 0.05841,-0.0417 0.11044,-0.0919 0.168169,-0.13453 0.07128,-0.0527 0.1465,-0.0998 0.218623,-0.15136 2.4e-5,-2e-5 0.269049,-0.20179 0.269073,-0.2018 0.08214,-0.0536 0.169664,-0.0985 0.252257,-0.15136 0.08678,-0.0555 0.2981,-0.21233 0.369977,-0.26907 0.127897,-0.10097 0.243321,-0.217 0.369975,-0.31953 0.03142,-0.0254 0.06727,-0.0448 0.100904,-0.0673 0.116861,-0.0779 0.239779,-0.15229 0.353158,-0.23543 0.05154,-0.0378 0.09981,-0.0799 0.151355,-0.11772 0.1138,-0.0835 0.2418,-0.14883 0.353158,-0.23544 0.01878,-0.0146 0.03364,-0.0336 0.05045,-0.0505 0.06166,-0.0448 0.12442,-0.0882 0.184986,-0.13453 0.101669,-0.0778 0.12301,-0.10619 0.218623,-0.20181 0.02241,-0.0224 0.04251,-0.0475 0.06727,-0.0673 0.03157,-0.0252 0.06886,-0.0426 0.100904,-0.0673 0.07981,-0.0357 0.119206,-0.11701 0.184986,-0.16817 0.0258,-0.0201 0.05749,-0.0315 0.08409,-0.0505 0.0258,-0.0184 0.0419,-0.0482 0.06727,-0.0673 0.03234,-0.0243 0.06624,-0.0465 0.100902,-0.0673 0.104007,-0.0624 0.03417,-5.3e-4 0.134538,-0.0841 0.04186,-0.0349 0.07351,-0.0861 0.117721,-0.11772 0.0204,-0.0146 0.04687,-0.019 0.06727,-0.0336 0.03226,-0.023 0.05047,-0.0631 0.08409,-0.0841 0.01416,-0.009 0.03368,-0.007 0.04713,-0.0168 0.02524,-0.0185 0.03953,-0.0503 0.06637,-0.0664 0.0075,-0.004 0.05964,0.003 0.07315,0 0.08018,-0.017 0.02331,-0.0159 0.0567,-0.0159"
       id="path1573-6" />
    <path
       style="fill:#ffffff;stroke:#ffffff;stroke-width:2.765;stroke-linecap:butt;stroke-linejoin:miter;stroke-dasharray:none;stroke-opacity:1"
       d="m 91.32726,221.60258 c 0.373944,-0.23793 0.273976,-0.15813 0.727332,-0.57291 0.105283,-0.0963 0.198967,-0.20472 0.30271,-0.3027 0.09815,-0.0927 0.201107,-0.18018 0.302707,-0.26908 0.267642,-0.23418 0.671441,-0.57723 0.924941,-0.7904 0.03355,-0.0282 0.283268,-0.23369 0.336341,-0.26907 0.745281,-0.49686 -0.42975,0.35021 0.672687,-0.43725 0.05841,-0.0417 0.11044,-0.0919 0.168169,-0.13453 0.07128,-0.0527 0.1465,-0.0998 0.218623,-0.15136 2.4e-5,-2e-5 0.269049,-0.20179 0.269073,-0.2018 0.08214,-0.0536 0.169664,-0.0985 0.252257,-0.15136 0.08678,-0.0555 0.2981,-0.21233 0.369977,-0.26907 0.127897,-0.10097 0.243321,-0.217 0.369975,-0.31953 0.03142,-0.0254 0.06727,-0.0448 0.100904,-0.0673 0.116861,-0.0779 0.239779,-0.15229 0.353158,-0.23543 0.05154,-0.0378 0.09981,-0.0799 0.151355,-0.11772 0.1138,-0.0835 0.2418,-0.14883 0.353158,-0.23544 0.01878,-0.0146 0.03364,-0.0336 0.05045,-0.0505 0.06166,-0.0448 0.12442,-0.0882 0.184986,-0.13453 0.101669,-0.0778 0.12301,-0.10619 0.218623,-0.20181 0.02241,-0.0224 0.04251,-0.0475 0.06727,-0.0673 0.03157,-0.0252 0.06886,-0.0426 0.100904,-0.0673 0.07981,-0.0357 0.119206,-0.11701 0.184986,-0.16817 0.0258,-0.0201 0.05749,-0.0315 0.08409,-0.0505 0.0258,-0.0184 0.0419,-0.0482 0.06727,-0.0673 0.03234,-0.0243 0.06624,-0.0465 0.100902,-0.0673 0.104007,-0.0624 0.03417,-5.3e-4 0.134538,-0.0841 0.04186,-0.0349 0.07351,-0.0861 0.117721,-0.11772 0.0204,-0.0146 0.04687,-0.019 0.06727,-0.0336 0.03226,-0.023 0.05047,-0.0631 0.08409,-0.0841 0.01416,-0.009 0.03368,-0.007 0.04713,-0.0168 0.02524,-0.0185 0.03953,-0.0503 0.06637,-0.0664 0.0075,-0.004 0.05964,0.003 0.07315,0 0.08018,-0.017 0.02331,-0.0159 0.0567,-0.0159"
       id="path1573-7" />
    <path
       style="fill:#ffffff;stroke:#ffffff;stroke-width:2.765;stroke-linecap:butt;stroke-linejoin:miter;stroke-dasharray:none;stroke-opacity:1"
       d="m 104.56812,211.26006 c 0.37395,-0.23793 0.27398,-0.15813 0.72734,-0.57291 0.10528,-0.0963 0.19896,-0.20472 0.30271,-0.3027 0.0982,-0.0927 0.2011,-0.18018 0.3027,-0.26908 0.26764,-0.23418 0.67144,-0.57723 0.92494,-0.7904 0.0335,-0.0282 0.28327,-0.23369 0.33634,-0.26907 0.74529,-0.49686 -0.42975,0.35021 0.67269,-0.43725 0.0584,-0.0417 0.11044,-0.0919 0.16817,-0.13453 0.0713,-0.0527 0.1465,-0.0998 0.21862,-0.15136 3e-5,-2e-5 0.26905,-0.20179 0.26908,-0.2018 0.0821,-0.0536 0.16966,-0.0985 0.25225,-0.15136 0.0868,-0.0555 0.2981,-0.21233 0.36998,-0.26907 0.1279,-0.10097 0.24332,-0.217 0.36998,-0.31953 0.0314,-0.0254 0.0673,-0.0448 0.1009,-0.0673 0.11686,-0.0779 0.23978,-0.15229 0.35316,-0.23543 0.0515,-0.0378 0.0998,-0.0799 0.15135,-0.11772 0.1138,-0.0835 0.2418,-0.14883 0.35316,-0.23544 0.0188,-0.0146 0.0336,-0.0336 0.0504,-0.0505 0.0617,-0.0448 0.12442,-0.0882 0.18499,-0.13453 0.10167,-0.0778 0.12301,-0.10619 0.21862,-0.20181 0.0224,-0.0224 0.0425,-0.0475 0.0673,-0.0673 0.0316,-0.0252 0.0689,-0.0426 0.1009,-0.0673 0.0798,-0.0357 0.11921,-0.11701 0.18499,-0.16817 0.0258,-0.0201 0.0575,-0.0315 0.0841,-0.0505 0.0258,-0.0184 0.0419,-0.0482 0.0673,-0.0673 0.0323,-0.0243 0.0662,-0.0465 0.1009,-0.0673 0.10401,-0.0624 0.0342,-5.3e-4 0.13454,-0.0841 0.0419,-0.0349 0.0735,-0.0861 0.11772,-0.11772 0.0204,-0.0146 0.0469,-0.019 0.0673,-0.0336 0.0323,-0.023 0.0505,-0.0631 0.0841,-0.0841 0.0142,-0.009 0.0337,-0.007 0.0471,-0.0168 0.0252,-0.0185 0.0395,-0.0503 0.0664,-0.0664 0.007,-0.004 0.0596,0.003 0.0731,0 0.0802,-0.017 0.0233,-0.0159 0.0567,-0.0159"
       id="path1573-5" />
  </g>
</svg>
